<svg width="124" height="117" viewBox="0 0 124 117" fill="none" xmlns="http://www.w3.org/2000/svg">
<rect width="124" height="117" fill="#F5F5F5"/>
<g id="iPhone 13 / 13 Pro - 6">
<rect width="390" height="844" transform="translate(-133 -363)" fill="#1AA09C"/>
<g id="Isolation_Mode" clip-path="url(#clip0_0_1)">
<g id="hand">
<path id="Vector" d="M26.473 117C26.2188 117.002 25.9668 116.952 25.7325 116.854C25.4981 116.756 25.2863 116.611 25.1098 116.429L2.95866 94.3474C2.02057 93.416 1.2763 92.309 0.768565 91.09C0.260834 89.8711 -0.000349655 88.5642 1.18188e-05 87.2443V44.8111C1.18188e-05 42.1492 1.06082 39.5962 2.94907 37.7139C4.83731 35.8317 7.39833 34.7742 10.0687 34.7742C12.7391 34.7742 15.3001 35.8317 17.1884 37.7139C19.0766 39.5962 20.1374 42.1492 20.1374 44.8111V68.6991C20.1374 69.211 19.9334 69.702 19.5703 70.0639C19.2072 70.4259 18.7147 70.6293 18.2011 70.6293C17.6876 70.6293 17.1951 70.4259 16.832 70.0639C16.4688 69.702 16.2648 69.211 16.2648 68.6991V44.8111C16.2648 43.173 15.612 41.602 14.45 40.4436C13.288 39.2853 11.712 38.6346 10.0687 38.6346C8.4254 38.6346 6.84939 39.2853 5.68739 40.4436C4.52539 41.602 3.87259 43.173 3.87259 44.8111V87.2443C3.87194 88.0593 4.03312 88.8664 4.34683 89.6191C4.66054 90.3718 5.12058 91.0551 5.70044 91.6297L27.8516 113.711C28.1209 113.982 28.3037 114.326 28.3769 114.7C28.4502 115.075 28.4105 115.462 28.2631 115.814C28.1156 116.166 27.8668 116.466 27.5483 116.677C27.2297 116.888 26.8555 117.001 26.473 117Z" fill="white"/>
<path id="Vector_2" d="M53.8598 117C53.3463 117 52.8538 116.797 52.4907 116.435C52.1276 116.073 51.9235 115.582 51.9235 115.07V101.929C51.9303 100.462 51.6433 99.0088 51.0794 97.6539C50.5155 96.299 49.686 95.0699 48.6396 94.0385L31.4763 76.9139C31.1742 76.6115 30.836 76.347 30.4695 76.1264C30.3912 76.0839 30.3183 76.0321 30.2526 75.972C29.317 75.4106 28.2465 75.1119 27.1545 75.1073C25.5112 75.1073 23.9352 75.758 22.7732 76.9164C21.6112 78.0747 20.9584 79.6458 20.9584 81.2839C20.9638 82.3745 21.2692 83.4427 21.8414 84.3722L21.9963 84.6038C22.2131 84.9676 22.4789 85.3001 22.7863 85.592C22.9663 85.7715 23.1091 85.9846 23.2065 86.219C23.304 86.4535 23.3541 86.7048 23.3541 86.9586C23.3541 87.2124 23.304 87.4637 23.2065 87.6982C23.1091 87.9327 22.9663 88.1457 22.7863 88.3252C22.6062 88.5047 22.3925 88.647 22.1573 88.7441C21.9221 88.8413 21.67 88.8912 21.4154 88.8912C21.1608 88.8912 20.9087 88.8413 20.6734 88.7441C20.4382 88.647 20.2245 88.5047 20.0445 88.3252C19.5742 87.8547 19.1538 87.3373 18.7898 86.781L18.6968 86.6266C17.6608 85.0152 17.1222 83.136 17.1478 81.2221C17.1498 79.4229 17.6369 77.6573 18.5582 76.1101C19.4795 74.5629 20.8011 73.291 22.3845 72.4276C23.968 71.5642 25.7553 71.1409 27.5591 71.2021C29.363 71.2634 31.1172 71.8068 32.6381 72.7756L32.7775 72.8837C33.3355 73.2407 33.8547 73.6547 34.3266 74.119L51.3814 91.3054C52.7893 92.6943 53.905 94.3494 54.663 96.1737C55.4211 97.9979 55.8063 99.9546 55.7961 101.929V115.07C55.7961 115.582 55.5921 116.073 55.229 116.435C54.8659 116.797 54.3734 117 53.8598 117Z" fill="white"/>
<path id="Vector_3" d="M29.4626 97.0342C29.2084 97.0361 28.9565 96.9864 28.7221 96.8882C28.4878 96.79 28.2759 96.6452 28.0994 96.4628L19.9825 88.3715C19.7867 88.196 19.6288 87.9824 19.5186 87.744C19.4083 87.5055 19.3481 87.2472 19.3415 86.9847C19.3349 86.7222 19.382 86.4611 19.4801 86.2175C19.5782 85.9738 19.7251 85.7526 19.9119 85.5675C20.0986 85.3824 20.3213 85.2372 20.5663 85.1408C20.8113 85.0444 21.0735 84.9989 21.3367 85.0069C21.6 85.015 21.8588 85.0766 22.0974 85.1878C22.336 85.299 22.5493 85.4576 22.7243 85.6538L30.8412 93.7452C31.1105 94.016 31.2933 94.3602 31.3666 94.7345C31.4398 95.1088 31.4002 95.4963 31.2527 95.8482C31.1052 96.2 30.8565 96.5004 30.5379 96.7115C30.2193 96.9226 29.8451 97.0349 29.4626 97.0342Z" fill="white"/>
<path id="Vector_4" d="M20.2459 87.5686C19.9355 87.5576 19.6325 87.4718 19.3627 87.3185C19.0929 87.1652 18.8644 86.949 18.6968 86.6884C17.6608 85.0769 17.1222 83.1977 17.1478 81.2839C17.1498 79.4847 17.6369 77.7191 18.5582 76.1719C19.4795 74.6247 20.8011 73.3528 22.3845 72.4894C23.968 71.6259 25.7553 71.2027 27.5591 71.2639C29.363 71.3251 31.1172 71.8686 32.6381 72.8374C33.0695 73.1179 33.3714 73.5578 33.4774 74.0602C33.5835 74.5626 33.4849 75.0865 33.2035 75.5165C32.9221 75.9465 32.4808 76.2475 31.9768 76.3532C31.4728 76.4589 30.9473 76.3606 30.5159 76.0801C29.5299 75.4402 28.3776 75.102 27.201 75.1073C25.5577 75.1073 23.9817 75.758 22.8197 76.9164C21.6577 78.0747 21.0049 79.6458 21.0049 81.2839C21.0014 82.4565 21.3405 83.6047 21.9808 84.5884C22.262 85.0164 22.3612 85.5382 22.2566 86.0391C22.1521 86.54 21.8523 86.9791 21.4231 87.2597C21.0713 87.4794 20.6606 87.5872 20.2459 87.5686Z" fill="white"/>
<path id="Vector_5" d="M29.4626 97.0342C29.2084 97.0361 28.9565 96.9864 28.7221 96.8882C28.4878 96.79 28.2759 96.6452 28.0994 96.4628L19.9825 88.3715C19.7867 88.196 19.6288 87.9824 19.5186 87.744C19.4083 87.5055 19.3481 87.2472 19.3415 86.9847C19.3349 86.7222 19.382 86.4611 19.4801 86.2175C19.5782 85.9738 19.7251 85.7526 19.9119 85.5675C20.0986 85.3824 20.3213 85.2372 20.5663 85.1408C20.8113 85.0444 21.0735 84.9989 21.3367 85.0069C21.6 85.015 21.8588 85.0766 22.0974 85.1878C22.336 85.299 22.5493 85.4576 22.7243 85.6538L30.8412 93.7452C31.1105 94.016 31.2933 94.3602 31.3666 94.7345C31.4398 95.1088 31.4002 95.4963 31.2527 95.8482C31.1052 96.2 30.8565 96.5004 30.5379 96.7115C30.2193 96.9226 29.8451 97.0349 29.4626 97.0342Z" fill="white"/>
<path id="Vector_6" d="M21.3457 88.9429C21.0915 88.9447 20.8395 88.8951 20.6052 88.7969C20.3708 88.6986 20.159 88.5539 19.9825 88.3715C19.5123 87.9011 19.0918 87.3836 18.7278 86.8274L18.6349 86.673C17.5988 85.0615 17.0602 83.1823 17.0858 81.2684C17.0878 79.4692 17.575 77.7036 18.4963 76.1564C19.4175 74.6092 20.7391 73.3374 22.3226 72.4739C23.9061 71.6105 25.6933 71.1872 27.4972 71.2485C29.301 71.3097 31.0552 71.8531 32.5761 72.822L32.7156 72.93C33.2736 73.2871 33.7927 73.7011 34.2646 74.1654C34.6282 74.5278 34.8324 75.0194 34.8324 75.5319C34.8324 76.0445 34.6282 76.5361 34.2646 76.8985C33.901 77.2609 33.4079 77.4646 32.8937 77.4646C32.3795 77.4646 31.8864 77.2609 31.5228 76.8985C31.2206 76.5961 30.8825 76.3316 30.5159 76.111C30.4376 76.0685 30.3648 76.0166 30.2991 75.9566C29.3635 75.3952 28.293 75.0964 27.201 75.0919C25.5577 75.0919 23.9817 75.7426 22.8197 76.9009C21.6577 78.0593 21.0049 79.6303 21.0049 81.2684C21.0102 82.359 21.3156 83.4272 21.8878 84.3567L22.0427 84.5884C22.2595 84.9522 22.5253 85.2847 22.8327 85.5766C23.0999 85.8495 23.2807 86.1945 23.3528 86.5689C23.4248 86.9434 23.3849 87.3307 23.2381 87.6827C23.0912 88.0347 22.8438 88.3359 22.5267 88.549C22.2095 88.7621 21.8365 88.8775 21.4541 88.8811L21.3457 88.9429Z" fill="white"/>
<path id="Vector_7" d="M97.527 117C97.2728 117.002 97.0209 116.952 96.7865 116.854C96.5522 116.756 96.3404 116.611 96.1639 116.429C95.984 116.251 95.8413 116.039 95.7439 115.806C95.6465 115.573 95.5963 115.322 95.5963 115.07C95.5963 114.817 95.6465 114.567 95.7439 114.334C95.8413 114.101 95.984 113.889 96.1639 113.711L118.315 91.6297C119.472 90.4609 120.123 88.8863 120.127 87.2443V44.8111C120.127 43.173 119.475 41.602 118.313 40.4436C117.151 39.2853 115.575 38.6346 113.931 38.6346C112.288 38.6346 110.712 39.2853 109.55 40.4436C108.388 41.602 107.735 43.173 107.735 44.8111V68.6991C107.735 69.211 107.531 69.702 107.168 70.0639C106.805 70.4259 106.312 70.6293 105.799 70.6293C105.285 70.6293 104.793 70.4259 104.43 70.0639C104.067 69.702 103.863 69.211 103.863 68.6991V44.8111C103.863 42.1492 104.923 39.5962 106.812 37.7139C108.7 35.8317 111.261 34.7742 113.931 34.7742C116.602 34.7742 119.163 35.8317 121.051 37.7139C122.939 39.5962 124 42.1492 124 44.8111V87.2443C123.998 89.9065 122.94 92.4598 121.057 94.3474L98.8902 116.429C98.7137 116.611 98.5019 116.756 98.2675 116.854C98.0332 116.952 97.7812 117.002 97.527 117Z" fill="white"/>
<path id="Vector_8" d="M70.1402 117C69.6266 117 69.1341 116.797 68.771 116.435C68.4079 116.073 68.2039 115.582 68.2039 115.07V101.929C68.1945 99.951 68.5816 97.991 69.3423 96.164C70.1031 94.3371 71.2222 92.68 72.6341 91.29L89.7974 74.1963C90.2617 73.7191 90.7817 73.2991 91.3464 72.9455C91.3801 72.9016 91.4222 72.8649 91.4703 72.8374C92.9912 71.8686 94.7454 71.3251 96.5493 71.2639C98.3532 71.2027 100.14 71.6259 101.724 72.4894C103.307 73.3528 104.629 74.6247 105.55 76.1719C106.472 77.7191 106.959 79.4847 106.961 81.2839C106.986 83.1977 106.448 85.0769 105.412 86.6884C105.384 86.7371 105.353 86.7835 105.319 86.8274C104.968 87.393 104.546 87.9119 104.064 88.3715C103.888 88.5668 103.674 88.7241 103.434 88.834C103.195 88.9439 102.936 89.004 102.673 89.0106C102.409 89.0171 102.148 88.9701 101.903 88.8724C101.659 88.7746 101.437 88.6281 101.251 88.4419C101.065 88.2558 100.92 88.0338 100.823 87.7896C100.726 87.5453 100.681 87.284 100.689 87.0216C100.697 86.7592 100.759 86.5011 100.87 86.2633C100.982 86.0255 101.141 85.8128 101.338 85.6384C101.636 85.3423 101.896 85.0104 102.112 84.6501L102.283 84.4185C102.85 83.4877 103.15 82.4194 103.15 81.3302C103.15 79.6921 102.497 78.121 101.335 76.9627C100.173 75.8044 98.5972 75.1536 96.9539 75.1536C95.8619 75.1582 94.7914 75.457 93.8558 76.0183C93.7901 76.0784 93.7173 76.1302 93.639 76.1728C93.2751 76.3972 92.9374 76.6613 92.6321 76.9603L75.3604 94.0231C74.3149 95.0583 73.4862 96.2903 72.9225 97.6476C72.3587 99.0048 72.0711 100.46 72.0765 101.929V115.07C72.0765 115.582 71.8725 116.073 71.5093 116.435C71.1462 116.797 70.6537 117 70.1402 117Z" fill="white"/>
<path id="Vector_9" d="M94.5374 97.0342C94.2832 97.0361 94.0313 96.9864 93.7969 96.8882C93.5626 96.79 93.3507 96.6452 93.1743 96.4628C92.9944 96.2849 92.8517 96.0732 92.7543 95.84C92.6569 95.6067 92.6067 95.3566 92.6067 95.104C92.6067 94.8514 92.6569 94.6012 92.7543 94.368C92.8517 94.1348 92.9944 93.9231 93.1743 93.7452L101.291 85.6538C101.653 85.2934 102.143 85.091 102.654 85.091C103.166 85.091 103.656 85.2934 104.017 85.6538C104.379 86.0142 104.582 86.503 104.582 87.0127C104.582 87.5223 104.379 88.0111 104.017 88.3715L95.9006 96.4628C95.7241 96.6452 95.5122 96.79 95.2779 96.8882C95.0436 96.9864 94.7916 97.0361 94.5374 97.0342Z" fill="white"/>
<path id="Vector_10" d="M103.754 87.5686C103.376 87.5645 103.007 87.4577 102.685 87.2597C102.262 86.971 101.967 86.5296 101.863 86.0285C101.759 85.5274 101.854 85.0056 102.128 84.5729C102.769 83.5956 103.109 82.4519 103.104 81.2839C103.104 79.6458 102.451 78.0747 101.289 76.9164C100.127 75.758 98.5507 75.1073 96.9074 75.1073C95.7311 75.1038 94.5793 75.4418 93.5925 76.0801C93.1611 76.3606 92.6356 76.4589 92.1316 76.3532C91.6276 76.2475 91.1863 75.9465 90.9049 75.5165C90.6235 75.0865 90.525 74.5626 90.631 74.0602C90.7371 73.5578 91.039 73.1179 91.4703 72.8374C92.9912 71.8686 94.7454 71.3251 96.5493 71.2639C98.3532 71.2027 100.14 71.6259 101.724 72.4894C103.307 73.3528 104.629 74.6247 105.55 76.1719C106.471 77.7191 106.959 79.4847 106.961 81.2839C106.986 83.1977 106.448 85.0769 105.412 86.6884C105.236 86.9664 104.991 87.1939 104.7 87.3482C104.41 87.5026 104.083 87.5786 103.754 87.5686Z" fill="white"/>
<path id="Vector_11" d="M94.5374 97.0342C94.2832 97.0361 94.0313 96.9864 93.7969 96.8882C93.5626 96.79 93.3507 96.6452 93.1743 96.4628C92.9944 96.2849 92.8517 96.0732 92.7543 95.84C92.6569 95.6067 92.6067 95.3566 92.6067 95.104C92.6067 94.8514 92.6569 94.6012 92.7543 94.368C92.8517 94.1348 92.9944 93.9231 93.1743 93.7452L101.291 85.6538C101.653 85.2934 102.143 85.091 102.654 85.091C103.166 85.091 103.656 85.2934 104.017 85.6538C104.379 86.0142 104.582 86.503 104.582 87.0127C104.582 87.5223 104.379 88.0111 104.017 88.3715L95.9006 96.4628C95.7241 96.6452 95.5122 96.79 95.2779 96.8882C95.0436 96.9864 94.7916 97.0361 94.5374 97.0342Z" fill="white"/>
<path id="Vector_12" d="M102.654 88.9429C102.27 88.9436 101.894 88.8302 101.574 88.6172C101.255 88.4042 101.006 88.1012 100.86 87.7467C100.714 87.3923 100.677 87.0026 100.754 86.6271C100.83 86.2516 101.017 85.9075 101.291 85.6384C101.59 85.3423 101.85 85.0104 102.066 84.6501L102.236 84.4185C102.804 83.4877 103.104 82.4194 103.104 81.3302C103.104 79.6921 102.451 78.121 101.289 76.9627C100.127 75.8044 98.5507 75.1536 96.9074 75.1536C95.8154 75.1582 94.745 75.457 93.8094 76.0183C93.7436 76.0784 93.6708 76.1302 93.5925 76.1728C93.2286 76.3972 92.8909 76.6613 92.5856 76.9603C92.4095 77.1555 92.1953 77.3129 91.9561 77.4228C91.7169 77.5326 91.4577 77.5927 91.1944 77.5993C90.9311 77.6059 90.6692 77.5589 90.4248 77.4611C90.1803 77.3633 89.9585 77.2169 89.7727 77.0307C89.587 76.8445 89.4414 76.6225 89.3447 76.3783C89.248 76.1341 89.2023 75.8728 89.2104 75.6103C89.2185 75.3479 89.2802 75.0899 89.3918 74.852C89.5034 74.6142 89.6625 74.4016 89.8593 74.2271C90.3279 73.7592 90.8475 73.3448 91.4084 72.9918C91.4421 72.948 91.4842 72.9112 91.5323 72.8837C93.0532 71.9149 94.8074 71.3714 96.6113 71.3102C98.4151 71.249 100.202 71.6723 101.786 72.5357C103.369 73.3991 104.691 74.671 105.612 76.2182C106.533 77.7654 107.021 79.531 107.023 81.3302C107.048 83.244 106.51 85.1233 105.474 86.7347C105.446 86.7834 105.415 86.8298 105.381 86.8737C105.03 87.4393 104.608 87.9582 104.126 88.4178C103.933 88.6058 103.702 88.7499 103.448 88.8405C103.194 88.9312 102.923 88.9661 102.654 88.9429Z" fill="white"/>
</g>
<g id="Group 5" opacity="0.993623">
<path id="Vector_13" d="M90.6231 45.506C85.8731 53.661 78.9729 60.3632 70.6716 64.8851C76.5926 55.7946 79.7603 45.1958 79.7954 34.3573C79.7596 29.5194 79.1143 24.7051 77.8746 20.0276C83.2649 15.1966 89.5912 11.5179 96.4629 9.21855C98.9741 21.6205 96.8999 34.5094 90.6231 45.506Z" fill="white"/>
<path id="Vector_14" d="M44.1831 34.3573C44.2661 45.1847 47.4066 55.7699 53.245 64.9005C45.0046 60.3116 38.1394 53.6172 33.3554 45.506C27.068 34.5074 24.9984 21.6079 27.531 9.20312C34.4264 11.4505 40.7629 15.1351 46.1194 20.0121C44.8407 24.6875 44.1896 29.5113 44.1831 34.3573Z" fill="white"/>
<path id="Vector_15" d="M75.1483 34.3573C75.1254 43.7811 72.5167 53.0192 67.6045 61.071C66.6751 62.6152 65.7611 63.9277 64.9402 65.0549C63.67 66.7844 62.6011 68.0042 61.9815 68.6991C60.9127 67.5101 59.9213 66.3057 59.0229 65.0858C58.1244 63.8659 57.133 62.399 56.3275 61.0556C51.4849 52.9874 48.8962 43.7745 48.8302 34.3727C48.8253 30.8599 49.1888 27.3563 49.9146 23.9188C50.1159 22.9923 50.3328 22.0813 50.5651 21.2011C50.7975 20.321 51.0608 19.4871 51.3242 18.6533C53.5592 11.7789 57.1865 5.43525 61.9815 0.0154381C66.8017 5.37357 70.4286 11.6888 72.6234 18.5452C72.9022 19.4254 73.15 20.2746 73.3669 21.1085C73.5838 21.9423 73.8316 22.9615 74.0175 23.8262C74.7619 27.2876 75.1409 30.8172 75.1483 34.3573Z" fill="white"/>
</g>
</g>
</g>
<defs>
<clipPath id="clip0_0_1">
<rect width="124" height="117" fill="white"/>
</clipPath>
</defs>
</svg>
