<svg width="64" height="64" viewBox="0 0 64 64" fill="none" xmlns="http://www.w3.org/2000/svg">
<g filter="url(#filter0_d_103_1922)">
<g clip-path="url(#clip0_103_1922)">
<path d="M32 56C47.464 56 60 43.464 60 28C60 12.536 47.464 0 32 0C16.536 0 4 12.536 4 28C4 43.464 16.536 56 32 56Z" fill="white"/>
<path d="M45.1759 11.4983C42.539 9.99693 39.6166 9.61291 36.7192 10.4073C33.8231 11.2017 31.5051 13.0247 30.141 15.6227L29.2398 17.2045L27.658 16.3034C25.1598 14.7646 22.236 14.3792 19.34 15.1749C16.4439 15.9693 14.1259 17.7923 12.7618 20.3904C9.79636 25.8013 11.6887 32.6969 16.9624 35.6998L35.9581 47.0997C36.4849 47.4005 36.9368 47.4241 37.4886 47.273C38.0404 47.1218 38.3786 46.7323 38.7169 46.3427L49.4125 26.9464C52.2393 21.5729 50.3469 14.6772 45.1745 11.4983H45.1759ZM37.3181 27.9002L35.2912 28.4561C35.0888 28.5116 34.849 28.4325 34.6771 28.3341L33.8092 27.555L33.5236 29.9575C33.4446 30.1974 33.2297 30.4746 32.9594 30.5481C32.6891 30.6216 32.4492 30.5426 32.2399 30.3097L30.7759 28.6779L30.2851 29.5388C30.2061 29.7787 30.0897 29.8827 29.8859 29.9381L27.859 30.494C27.4542 30.6049 27.109 30.4095 26.9981 30.0033C26.8872 29.5971 27.0827 29.2533 27.4889 29.1424L29.2454 28.6599L30.0786 27.1959C30.177 27.024 30.3614 26.9006 30.6303 26.8272C30.8522 26.8396 31.0906 26.9187 31.196 27.0351L32.2427 28.201L32.5158 26.0203C32.5283 25.7985 32.7417 25.5226 32.9455 25.4671C33.2159 25.3937 33.4363 25.4048 33.6276 25.5711L35.258 27.0129L36.9465 26.5499C37.3513 26.439 37.6965 26.6345 37.8075 27.0407C37.9184 27.4468 37.7229 27.7907 37.3167 27.9016L37.3181 27.9002Z" fill="#32E0C4"/>
<g opacity="0.5">
<path d="M49.5303 10.0053C44.8473 5.32219 38.6212 2.74359 32 2.74359C25.3788 2.74359 19.1514 5.32219 14.4697 10.0053C9.78661 14.6883 7.20801 20.9144 7.20801 27.5356C7.20801 32.9507 8.92292 38.094 12.167 42.4125C14.844 45.9754 18.4901 48.7813 22.5895 50.4727C22.6768 50.5087 22.7767 50.4533 22.7905 50.359C22.7975 50.3077 22.8085 50.2578 22.821 50.2079C22.8571 50.0623 22.9278 49.9223 23.0207 49.7975C23.0331 49.7809 23.0414 49.7629 23.0456 49.7434C23.0539 49.706 23.0636 49.6686 23.0747 49.6325L23.1052 49.4218C23.1052 49.4052 23.1052 49.3899 23.1052 49.3733C23.108 49.3109 23.0719 49.2541 23.0151 49.2305C13.222 45.2018 7.20108 35.0926 8.7718 24.0559C10.2025 13.9827 18.0756 5.98902 28.121 4.37116C42.7747 2.0116 55.4791 13.3186 55.4791 27.537C55.4791 38.0746 48.4739 47.1621 38.6642 50.0554C38.5865 50.0776 38.5436 50.158 38.5643 50.2356C38.5754 50.2813 38.5851 50.3271 38.5921 50.3742C38.5921 50.3825 38.5948 50.3909 38.599 50.3992C38.6198 50.4546 38.6364 50.5115 38.6503 50.5697C38.6517 50.578 38.6545 50.585 38.6586 50.5933C38.6974 50.6765 38.7265 50.7652 38.7487 50.8567C38.7515 50.8678 38.7557 50.8775 38.7598 50.8872C38.8111 50.9842 38.8513 51.0882 38.8804 51.1977C38.9012 51.2795 38.9844 51.3294 39.0662 51.3059C49.4111 48.242 56.7948 38.6555 56.7948 27.5384C56.7948 20.9158 54.2162 14.6897 49.5331 10.008L49.5303 10.0053Z" fill="black"/>
</g>
<path d="M38.5408 50.0942L38.9733 51.3308" stroke="white" stroke-width="0.277269" stroke-miterlimit="10"/>
<path d="M23.1634 49.2971L22.8002 50.5559" stroke="white" stroke-width="0.277269" stroke-miterlimit="10"/>
<path d="M22.6852 49.8058C25.2 50.6806 37.8559 56.3715 35.7376 38.9743C35.7376 38.9743 41.9068 37.5422 41.4743 27.8946C41.0418 18.2471 38.8236 17.6523 32.4035 19.6514" stroke="#262626" stroke-width="2.07952" stroke-miterlimit="10"/>
<path d="M32.4035 21.5771C33.4677 21.5771 34.3305 20.7143 34.3305 19.65C34.3305 18.5858 33.4677 17.723 32.4035 17.723C31.3392 17.723 30.4764 18.5858 30.4764 19.65C30.4764 20.7143 31.3392 21.5771 32.4035 21.5771Z" fill="#262626"/>
<path d="M38.757 53.1649C40.1115 53.1649 41.2095 52.0669 41.2095 50.7125C41.2095 49.358 40.1115 48.26 38.757 48.26C37.4026 48.26 36.3046 49.358 36.3046 50.7125C36.3046 52.0669 37.4026 53.1649 38.757 53.1649Z" fill="#262626"/>
<path d="M35.7376 38.9743C35.2025 39.1531 27.8687 40.0251 24.7772 33.5218C21.6718 26.9907 19.2193 21.9583 27.5485 21.3081" stroke="#262626" stroke-width="2.07952" stroke-miterlimit="10"/>
<path d="M27.5485 23.0313C28.6127 23.0313 29.4755 22.1686 29.4755 21.1043C29.4755 20.0401 28.6127 19.1773 27.5485 19.1773C26.4842 19.1773 25.6215 20.0401 25.6215 21.1043C25.6215 22.1686 26.4842 23.0313 27.5485 23.0313Z" fill="#262626"/>
</g>
</g>
<defs>
<filter id="filter0_d_103_1922" x="0" y="0" width="64" height="64" filterUnits="userSpaceOnUse" color-interpolation-filters="sRGB">
<feFlood flood-opacity="0" result="BackgroundImageFix"/>
<feColorMatrix in="SourceAlpha" type="matrix" values="0 0 0 0 0 0 0 0 0 0 0 0 0 0 0 0 0 0 127 0" result="hardAlpha"/>
<feOffset dy="4"/>
<feGaussianBlur stdDeviation="2"/>
<feComposite in2="hardAlpha" operator="out"/>
<feColorMatrix type="matrix" values="0 0 0 0 0 0 0 0 0 0 0 0 0 0 0 0 0 0 0.25 0"/>
<feBlend mode="normal" in2="BackgroundImageFix" result="effect1_dropShadow_103_1922"/>
<feBlend mode="normal" in="SourceGraphic" in2="effect1_dropShadow_103_1922" result="shape"/>
</filter>
<clipPath id="clip0_103_1922">
<rect x="4" width="56" height="56" rx="28" fill="white"/>
</clipPath>
</defs>
</svg>
